# xmcd
# 
# Track frame offsets:
#     150
#     21865
#     35152
#     48967
#     68227
#     88587
#     102197
#     122212
#     135367
#     156870
#     184695
#     211309
#     231247
#     249637
#     262837
# 
# Disc length: 3718
# 
# Revision: 1
# Processed by: cddbd v1.5.2PL0 Copyright (c) Steve Scherf et al.
# Submitted via: BonkEnc v1.0.5
# 
DISCID=cb0e840f
DTITLE=Muddy Waters - Muddy Waters Live
DYEAR=1983
DGENRE=Blues
TTITLE0=I Got My Brand On You (At Newport, Rhode Island, 1960)
TTITLE1=I'm Your Hoochie Coochie Man (At Newport, Rhode Island, 1960)
TTITLE2=Baby, Please Don't Go (At Newport, Rhode Island, 1960)
TTITLE3=Soon Forgotten (At Newport, Rhode Island, 1960)
TTITLE4=Tiger In Your Tank (At Newport, Rhode Island, 1960)
TTITLE5=I Feel So Good (At Newport, Rhode Island, 1960)
TTITLE6=I've Got My Mojo Working (Part 1) (At Newport, Rhode Island, 1960)
TTITLE7=I've Got My Mojo Working (Part 2) (At Newport, Rhode Island, 1960)
TTITLE8=Goodbye Newport Blues (At Newport, Rhode Island, 1960)
TTITLE9=Long Distance Call (At Super Cosmic Joy-Scout Jamboree, Chicago Ill. April 24, 1969)
TTITLE10=The Same Thing (At Super Cosmic Joy-Scout Jamboree, Chicago Ill. April 24, 1969)
TTITLE11=Wee Wee Baby (At Big Bill's, Copa Cabana. Recorded Probably Summer 1963)
TTITLE12=Sitting and Thinking (At Big Bill's, Copa Cabana. Recorded Probably Summer 1963)
TTITLE13=Clouds In My Heart (At Big Bill's, Copa Cabana. Recorded Probably Summer 1963)
TTITLE14=19 Years Old (At Big Bill's, Copa Cabana. Recorded Probably Summer 1963)
EXTD=
EXTT0=
EXTT1=
EXTT2=
EXTT3=
EXTT4=
EXTT5=
EXTT6=
EXTT7=
EXTT8=
EXTT9=
EXTT10=
EXTT11=
EXTT12=
EXTT13=
EXTT14=
PLAYORDER=
